<svg height='100px' width='100px'  fill="#000000" xmlns:x="http://ns.adobe.com/Extensibility/1.0/" xmlns:i="http://ns.adobe.com/AdobeIllustrator/10.0/" xmlns:graph="http://ns.adobe.com/Graphs/1.0/" xmlns="http://www.w3.org/2000/svg" xmlns:xlink="http://www.w3.org/1999/xlink" version="1.0" x="0px" y="0px" viewBox="0 0 20 20" enable-background="new 0 0 20 20" xml:space="preserve"><g><g i:extraneous="self"><symbol id="a" viewBox="-16 -16 32 32"><g><polygon fill="#000000" points="-15.75,-15.75 -15.75,15.75 15.75,15.75 15.75,-15.75     "></polygon><path fill="#000000" d="M15.5,15.5v-31h-31v31H15.5 M16,16h-32v-32h32V16L16,16z"></path></g></symbol><symbol viewBox="-55.791 -16 111.582 32"><use xlink:href="#a" width="32" height="32" x="-16" y="-16" transform="matrix(-2.4651 0 0 -1 2.8682 0)" overflow="visible"></use><use xlink:href="#a" width="32" height="32" x="-16" y="-16" transform="matrix(-1 0 0 -1 39.791 0)" overflow="visible"></use><use xlink:href="#a" width="32" height="32" x="-16" y="-16" transform="matrix(-1 0 0 -1 -39.791 0)" overflow="visible"></use><defs><filter id="g" filterUnits="userSpaceOnUse" x="-55.79" y="-16" width="111.58" height="32"><feColorMatrix type="matrix" values="1 0 0 0 0  0 1 0 0 0  0 0 1 0 0  0 0 0 1 0"></feColorMatrix></filter></defs><mask maskUnits="userSpaceOnUse" x="-55.79" y="-16" width="111.58" height="32" id="e"><g filter="url(#g)"><use xlink:href="#f" width="32" height="31" x="-16" y="-15.5" transform="matrix(3.19 0 0 1 0.0723 0)" overflow="visible"></use></g></mask><g transform="matrix(1 0 0 1 0 0)" mask="url(#e)"><use xlink:href="#a" width="32" height="32" x="-16" y="-16" transform="matrix(-3.4869 0 0 -1 0 0)" overflow="visible"></use></g><text transform="matrix(1 0 0 -1 -43.791 -5.3359)" fill="#000000" font-family="'FrutigerNextLT-Regular'" font-size="16">Seitenanfang</text></symbol><symbol viewBox="-16 -16 32 32"><use xlink:href="#b" width="32" height="32" x="-16" y="-16" overflow="visible"></use><g><polyline fill="#000000" stroke="#000000" stroke-width="2" points="-9,-5 0,4 9,-5     "></polyline></g></symbol><symbol id="f" viewBox="-16 -15.5 32 31"><g><polygon fill="#000000" points="16,-15.5 -16,-15.5 -16,15.5 16,15.5     "></polygon></g></symbol><symbol viewBox="-16 -16 32 32"><use xlink:href="#b" width="32" height="32" x="-16" y="-16" transform="matrix(-1 0 0 -1 0 0)" overflow="visible"></use><g><polyline fill="#000000" stroke="#000000" stroke-width="2" points="6,-0.701 0,-7 -6,-0.701     "></polyline><line fill="#000000" stroke="#000000" stroke-width="2" x1="0" y1="-2" x2="0" y2="7"></line></g></symbol><symbol viewBox="-16 -16 32 32"><g><polygon fill="#000000" points="-15.75,-15.75 -15.75,15.75 15.75,15.75 15.75,-15.75     "></polygon><g><path fill="#000000" d="M15.5,15.5v-31h-31v31H15.5 M16,16h-32v-32h32V16L16,16z"></path></g></g></symbol><symbol viewBox="-16 -16 32 32"><g><polygon fill="#000000" points="-15.75,-15.75 -15.75,15.75 15.75,15.75 15.75,-15.75     "></polygon><path fill="#000000" d="M15.5,15.5v-31h-31v31H15.5 M16,16h-32v-32h32V16L16,16z"></path></g></symbol><symbol id="b" viewBox="-16 -16 32 32"><g><polygon fill="#000000" points="-15.75,-15.75 -15.75,15.75 15.75,15.75 15.75,-15.75     "></polygon><path fill="#000000" d="M15.5,15.5v-31h-31v31H15.5 M16,16h-32v-32h32V16L16,16z"></path></g></symbol><symbol viewBox="-10 -10 20 20"><polygon fill="#000000" points="10,-10 -10,-10 -10,10 10,10    "></polygon></symbol><symbol viewBox="-5.707 -3.561 11.414 7.121"><polyline fill="#000000" stroke="#000000" stroke-width="2" points="5,2.854 0,-2.146 -5,2.854    "></polyline></symbol><symbol viewBox="-8.354 -8.354 16.707 16.707"><defs><filter id="d" filterUnits="userSpaceOnUse" x="-8.354" y="1.939" width="6.414" height="6.414"><feColorMatrix type="matrix" values="-1 0 0 0 1  0 -1 0 0 1  0 0 -1 0 1  0 0 0 1 0" color-interpolation-filters="sRGB" result="source"></feColorMatrix><feFlood style="flood-color:white;flood-opacity:1;" result="back"></feFlood><feBlend in="source" in2="back" mode="normal"></feBlend></filter></defs><mask maskUnits="userSpaceOnUse" x="-8.354" y="1.939" width="6.414" height="6.414" id="c"><g filter="url(#d)"><g><path fill="#000000" d="M2.104,8.354c3.453,0,6.25-2.798,6.25-6.251c0-3.451-2.797-6.249-6.25-6.249s-6.25,2.798-6.25,6.249        C-4.146,5.555-1.35,8.354,2.104,8.354 M2.104,10.354c-4.549,0-8.25-3.701-8.25-8.251c0-4.548,3.701-8.249,8.25-8.249        s8.25,3.701,8.25,8.249C10.354,6.652,6.652,10.354,2.104,10.354L2.104,10.354z"></path></g></g></mask><line mask="url(#c)" fill="#000000" stroke="#000000" stroke-width="2" x1="-2.646" y1="-2.646" x2="-7.646" y2="-7.646"></line><g><path fill="#000000" d="M2.104,6.354c2.344,0,4.25-1.907,4.25-4.251c0-2.343-1.906-4.249-4.25-4.249s-4.25,1.906-4.25,4.249      C-2.146,4.446-0.24,6.354,2.104,6.354 M2.104,8.354c-3.453,0-6.25-2.798-6.25-6.251c0-3.451,2.797-6.249,6.25-6.249      s6.25,2.798,6.25,6.249C8.354,5.555,5.557,8.354,2.104,8.354L2.104,8.354z"></path></g></symbol><g><g><path d="M7,17H4c-0.553,0-1-0.448-1-1v-3c0-0.552,0.447-1,1-1h3c0.553,0,1,0.448,1,1v3C8,16.552,7.553,17,7,17L7,17z M5,15h1v-1      H5V15L5,15z"></path></g><g><path d="M7,8H4.001c-0.553,0-1-0.448-1-1V3.999c0-0.265,0.105-0.52,0.293-0.707s0.441-0.293,0.707-0.293l0,0L7,3      c0.553,0,1,0.448,1,1v3C8,7.552,7.553,8,7,8L7,8z M5.001,6H6V5H5.001V6L5.001,6z"></path></g><g><path d="M16,8h-3c-0.553,0-1-0.448-1-1V3.999c0-0.552,0.447-1,1-1h3c0.553,0,1,0.448,1,1V7C17,7.552,16.553,8,16,8L16,8z M14,6      h1V4.999h-1V6L14,6z"></path></g><g><circle cx="5.5" cy="10.5" r="1.5"></circle><circle cx="9.5" cy="8.5" r="1.5"></circle><circle cx="10.5" cy="5.5" r="1.5"></circle><circle cx="15.5" cy="10.5" r="1.5"></circle><circle cx="12.5" cy="11.5" r="1.5"></circle><circle cx="13.5" cy="15.5" r="1.5"></circle><circle cx="10.5" cy="14.5" r="1.5"></circle></g></g></g></g></svg>
