<svg xmlns="http://www.w3.org/2000/svg" data-name="Layer 1" viewBox="-10 -10 150 150" x="0px" y="0px"><title>outline</title><path d="M2.98654,92.4335c3.48262,7.47323,14.77755,9.61026,20.94855,15.272,5.95295,5.4617,8.964,16.606,17.02768,19.54315A13.03926,13.03926,0,0,0,45.46792,128c6.94507,0,14.49405-4.4756,21.10256-4.76517q.39985-.01757.80449-.0173c6.182.00006,13.17434,2.938,19.34245,2.938a13.35076,13.35076,0,0,0,5.71613-1.142c7.47317-3.48268,9.6102-14.77755,15.272-20.94861,5.4617-5.95295,16.606-8.964,19.54308-17.02761s-3.66013-17.53671-4.0138-25.60773c-.36667-8.36672,5.26126-18.39,1.77863-25.86307s-14.77755-9.61026-20.94861-15.272C98.112,14.83276,95.101,3.68841,87.0373.75132A13.03791,13.03791,0,0,0,82.53207,0C75.587.00025,68.038,4.4756,61.42951,4.76517q-.39985.01757-.80449.0173c-6.18192,0-13.17427-2.938-19.34239-2.938a13.35039,13.35039,0,0,0-5.71613,1.142c-7.47323,3.48268-9.61026,14.77755-15.272,20.94861C14.83269,29.888,3.68841,32.899.75131,40.9627S4.41151,58.49941,4.76517,66.57043C5.13178,74.93715-.49609,84.96039,2.98654,92.4335ZM4.52835,42.33842c1.32057-3.62572,5.41711-6.19173,9.75409-8.90832,3.18557-1.9954,6.47958-4.05869,8.974-6.77749,2.6079-2.84245,4.45278-6.39414,6.237-9.82892,2.31631-4.45928,4.50418-8.67126,7.771-10.19363a9.38712,9.38712,0,0,1,4.01815-.76585,42.74976,42.74976,0,0,1,8.78516,1.3713A49.19337,49.19337,0,0,0,60.625,8.80222q.49333,0,.98046-.02116c3.68608-.1615,7.3846-1.35682,10.96138-2.51283C76.14449,5.112,79.5237,4.01981,82.53275,4.01975a9.011,9.011,0,0,1,3.12883.50854c3.62572,1.32064,6.19173,5.41717,8.90832,9.75421,1.9954,3.18551,4.05869,6.47952,6.77749,8.974,2.84245,2.60784,6.39414,4.45278,9.82886,6.23694,4.45928,2.31631,8.67126,4.50418,10.19369,7.77108,1.52237,3.26672.48885,7.89909-.60545,12.80337-.84282,3.77759-1.71442,7.6838-1.54549,11.53769.1615,3.68614,1.35682,7.38454,2.51283,10.96125,1.57389,4.86956,3.06044,9.46906,1.73987,13.09478s-5.41711,6.19173-9.75415,8.90832c-3.18551,1.9954-6.47952,4.05869-8.974,6.77743-2.6079,2.84252-4.45284,6.3942-6.237,9.829-2.31631,4.45928-4.50418,8.67126-7.771,10.19363a9.38693,9.38693,0,0,1-4.01815.76585,42.74976,42.74976,0,0,1-8.78516-1.3713A49.19663,49.19663,0,0,0,67.375,119.19778q-.49324,0-.98046.02116c-3.686.1615-7.38454,1.35689-10.96132,2.51289-3.57757,1.15625-6.95672,2.24841-9.96527,2.24841a9.01232,9.01232,0,0,1-3.12945-.50854c-3.62572-1.32064-6.19173-5.41717-8.90838-9.75421-1.9954-3.18551-4.05869-6.47952-6.77743-8.974-2.84245-2.60784-6.39414-4.45278-9.82892-6.23694C12.36445,96.19029,8.15248,94.00242,6.63,90.73552c-1.52237-3.26672-.48879-7.899.60545-12.80337.84289-3.77759,1.71442-7.6838,1.54556-11.53769-.1615-3.68614-1.35689-7.38454-2.51289-10.96125C4.69433,50.56357,3.20772,45.96414,4.52835,42.33842Z"/><path d="M64,104.19746A40.19746,40.19746,0,1,0,23.80254,64,40.19745,40.19745,0,0,0,64,104.19746Zm0-76.37518A36.17772,36.17772,0,1,1,27.82228,64,36.21869,36.21869,0,0,1,64,27.82228Z"/><path d="M64,112.237A48.237,48.237,0,1,0,15.763,64,48.23695,48.23695,0,0,0,64,112.237Zm0-92.45416A44.21721,44.21721,0,1,1,19.78279,64,44.26728,44.26728,0,0,1,64,19.78279Z"/><path d="M54.41164,84.22962a2.00379,2.00379,0,0,0,1.329-.50235l35.34023-31.163a2.00991,2.00991,0,0,0,.17818-2.83687L85.942,43.69788a2.00975,2.00975,0,0,0-2.83675-.17818L54.88313,68.40518,45.39371,58.8094a2.00991,2.00991,0,0,0-2.84233-.01589l-5.71619,5.65271a2.00986,2.00986,0,0,0-.01582,2.84233L52.98219,83.633A2.005,2.005,0,0,0,54.41164,84.22962ZM43.94874,63.065l8.07623,8.1667L54.69434,73.931l2.84736-2.51081L84.2563,47.864l2.65844,3.01463-32.409,28.57825-13.415-13.56566Z"/></svg>
