<svg version="1" xmlns="http://www.w3.org/2000/svg" width="1365.333" height="1365.333" viewBox="0 0 1024.000000 1024.000000"><path d="M0 512v512h1024V0H0v512zm476-383.6c85.4 11 156.3 38.9 222 87.4 46.6 34.4 90.4 80.1 121.9 127 41.3 61.5 66.7 131.2 75.1 205.7 3.3 30 3.5 37.1 1.1 43.7-2.6 6.7-9 13.1-14.7 14.7-6 1.7-59.9 1.4-64.7-.3-10.7-3.9-15.1-11.3-16.2-27.6-2.3-35.4-11-75.2-23.9-109.2-19.7-51.6-52.3-100.3-94.4-141-66.4-63.9-143-98.5-234.9-105.7-9.7-.8-13.1-1.5-17.1-3.5-6.9-3.5-12.8-10.4-14.1-16.7-1.4-6.6-1.4-51.3 0-57.9 1.5-6.9 6.2-12.9 12.9-16.3l5.5-2.9 15 .6c8.3.3 20.2 1.2 26.5 2zM242.3 271.5c11.5 2.4 20.8 10.1 26 21.2l2.2 4.8.5 198 .5 198 2.3 7.4c5.3 17.1 15.9 31.2 30.6 40.6 12.2 7.8 22.7 10.6 39 10.6 21.6-.1 35.2-5.7 50.6-21.1 10.9-10.8 15.5-18.8 19.1-33.1 1.8-7 2.1-10.2 1.6-20.4-.9-20-6.5-33-21.1-48.4-7.3-7.6-13.8-12-24-16.1-13.2-5.2-19.7-10.6-24-19.9-2-4.4-2.1-6.3-2.4-48.9-.3-48 0-51.8 5.2-60 7-11.1 20.6-18.1 32.8-16.8 8.2.8 27.2 5.7 39.4 10.1 50.4 18.1 93.1 57.1 118.8 108.5 16.1 32.3 22.4 61.2 21.3 98.4-.8 28.2-5.5 51.6-15.3 76.6-22.1 55.9-70.2 102.7-126.9 123.6-36.4 13.3-82.5 16.9-119.9 9.3-39-8-78.6-30-110.2-61.4-33.8-33.6-52.5-70.4-60.1-118.6-1.7-10.7-1.8-23.4-1.8-213.9V297.5l2.7-5.7c4.8-10.3 14.4-17.9 25.8-20.4 8.4-1.9 78.3-1.8 87.3.1zm220.2 1.1c62.8 8.1 117.6 31.9 167.5 72.7 12.8 10.5 43.4 41.8 53.4 54.7 36.5 46.9 58.3 97.9 67.1 156.7 2.6 17.9 3 29.3 1.1 35-1.9 5.8-7.3 11.7-13.1 14.4-3.6 1.7-7 1.9-33.4 1.9-20.3 0-30.6-.4-33.5-1.2-2.5-.8-5.9-3.1-8.7-5.9-5.1-5-5.1-4.9-7.9-27.4-6.4-51.3-29.7-98.1-67.7-136.1-39.7-39.7-84.9-61.8-141.6-69.3-8.4-1.1-15.8-2.6-17-3.4-4.4-3-8.6-7.5-10.9-11.8-2.3-4.3-2.3-4.9-2.3-34.4 0-29.7 0-30 2.4-34.7 3-6 7.8-10.5 12.7-12.4 4.3-1.6 13-1.3 31.9 1.2z"/></svg>