<?xml version="1.0" standalone="no"?>
<!DOCTYPE svg PUBLIC "-//W3C//DTD SVG 20010904//EN"
 "http://www.w3.org/TR/2001/REC-SVG-20010904/DTD/svg10.dtd">
<svg version="1.0" xmlns="http://www.w3.org/2000/svg"
 width="1024.000000pt" height="1024.000000pt" viewBox="0 0 1024.000000 1024.000000"
 preserveAspectRatio="xMidYMid meet">
<metadata>
Created by potrace 1.11, written by Peter Selinger 2001-2013
</metadata>
<g transform="translate(0.000000,1024.000000) scale(0.100000,-0.100000)"
fill="#000000" stroke="none">
<path d="M0 5120 l0 -5120 5120 0 5120 0 0 5120 0 5120 -5120 0 -5120 0 0
-5120z m5235 3296 c28 -7 731 -323 1563 -702 1066 -485 1525 -698 1553 -722
58 -49 81 -103 87 -193 8 -136 -47 -234 -163 -288 -167 -79 -2960 -1348 -3005
-1366 -76 -30 -128 -37 -191 -25 -35 7 -611 263 -1588 708 -1187 539 -1543
705 -1576 734 -64 56 -89 116 -89 213 0 125 48 206 155 260 111 57 2960 1351
3019 1371 75 27 160 30 235 10z m-1457 -3167 c570 -259 1067 -482 1104 -495
142 -50 310 -56 456 -14 41 11 552 236 1136 500 l1063 480 386 -174 c212 -96
402 -186 421 -201 21 -16 49 -53 67 -91 30 -60 31 -69 27 -153 -4 -77 -8 -96
-34 -137 -16 -26 -40 -55 -54 -65 -47 -35 -3084 -1411 -3148 -1427 -51 -12
-75 -13 -121 -5 -40 8 -540 231 -1602 713 -1239 563 -1551 709 -1581 738 -52
49 -73 109 -73 203 0 65 5 85 30 134 17 32 47 71 67 88 20 16 212 108 425 203
213 95 389 173 391 173 1 1 469 -211 1040 -470z m14 -1663 c579 -260 1085
-484 1123 -496 134 -42 323 -38 465 10 30 10 516 226 1080 480 564 255 1039
467 1055 472 27 8 67 -7 378 -146 418 -187 433 -195 474 -238 70 -73 94 -203
57 -311 -37 -109 57 -61 -1646 -836 -1424 -647 -1553 -704 -1612 -708 -36 -3
-86 0 -113 6 -41 11 -2911 1310 -3074 1392 -106 53 -152 129 -153 254 -1 68 3
88 27 137 16 33 45 70 67 88 35 27 779 369 807 370 6 0 486 -213 1065 -474z"/>
</g>
</svg>
