<?xml version="1.0" standalone="no"?>
<!DOCTYPE svg PUBLIC "-//W3C//DTD SVG 20010904//EN"
 "http://www.w3.org/TR/2001/REC-SVG-20010904/DTD/svg10.dtd">
<svg version="1.0" xmlns="http://www.w3.org/2000/svg"
 width="1024.000000pt" height="1024.000000pt" viewBox="0 0 1024.000000 1024.000000"
 preserveAspectRatio="xMidYMid meet">
<metadata>
Created by potrace 1.11, written by Peter Selinger 2001-2013
</metadata>
<g transform="translate(0.000000,1024.000000) scale(0.100000,-0.100000)"
fill="#000000" stroke="none">
<path d="M0 5120 l0 -5120 5120 0 5120 0 0 5120 0 5120 -5120 0 -5120 0 0
-5120z m9315 4389 c100 -12 223 -48 300 -87 239 -120 430 -355 498 -612 l22
-85 0 -3600 c0 -3405 -1 -3604 -18 -3669 -44 -174 -121 -311 -246 -439 -124
-128 -270 -214 -443 -260 l-83 -22 -4225 0 -4225 0 -83 22 c-342 91 -601 354
-689 699 -17 65 -18 264 -18 3669 l0 3600 22 85 c68 257 259 492 498 613 70
35 207 75 290 86 109 13 8290 13 8400 0z"/>
<path d="M910 8854 c-142 -66 -186 -167 -179 -414 4 -115 5 -121 32 -147 l27
-28 1163 -3 c639 -1 1177 0 1196 3 18 4 44 17 57 30 l24 24 0 256 0 256 -25
24 -24 25 -1108 0 -1108 0 -55 -26z"/>
<path d="M4175 8859 c-15 -12 -161 -224 -326 -470 l-299 -449 -1376 0 c-966 0
-1381 -3 -1396 -11 -45 -24 -48 -55 -48 -446 0 -224 4 -383 11 -405 7 -26 19
-43 39 -53 26 -13 526 -15 4340 -15 3814 0 4314 2 4340 15 20 10 32 27 39 53
15 52 15 1478 0 1557 -20 109 -70 173 -169 219 l-55 26 -2536 0 -2536 0 -28
-21z"/>
<path d="M4910 6524 c-363 -42 -572 -99 -835 -229 -526 -259 -973 -756 -1165
-1293 -77 -217 -114 -398 -132 -654 -20 -278 15 -607 91 -863 231 -776 929
-1426 1711 -1594 332 -71 748 -71 1080 0 712 153 1358 705 1644 1404 180 442
214 1007 90 1498 -201 797 -885 1477 -1679 1667 -197 48 -312 61 -550 65 -121
2 -236 1 -255 -1z m505 -638 c345 -59 644 -217 909 -480 291 -288 453 -601
507 -981 16 -112 16 -384 0 -490 -55 -361 -204 -661 -461 -929 -296 -308 -623
-480 -1017 -535 -105 -15 -361 -15 -466 0 -394 55 -721 227 -1017 535 -257
268 -406 568 -461 929 -16 106 -16 378 0 490 54 379 215 691 505 980 281 280
591 436 971 490 124 18 402 13 530 -9z"/>
<path d="M4899 5415 c-225 -42 -411 -134 -595 -293 -277 -241 -428 -560 -429
-908 0 -130 0 -131 35 -199 29 -57 43 -73 85 -96 138 -77 339 -48 426 62 45
57 59 101 69 217 17 196 64 299 194 427 125 124 226 169 410 186 140 12 217
46 271 116 94 123 83 311 -24 419 -66 67 -101 78 -241 81 -76 1 -155 -3 -201
-12z"/>
</g>
</svg>
